<svg width="400" height="400" viewBox="0 0 400 400" fill="none" xmlns="http://www.w3.org/2000/svg">
<path d="M87.6509 277.238H124.75C133.636 277.238 139.659 271.258 139.659 262.779V234.639C139.659 226.16 133.636 220.181 124.75 220.181H87.6509C78.7285 220.181 72.741 226.16 72.741 234.639V262.779C72.741 271.258 78.7285 277.238 87.6509 277.238ZM33.7264 161.715H366.88V128.148H33.7264V161.715ZM68.1941 325H331.725C360.312 325 375 310.185 375 282.067V117.897C375 89.8149 360.312 75 331.725 75H68.1941C39.688 75 25 89.5886 25 117.897V282.067C25 310.375 39.688 325 68.1941 325ZM68.6273 309.036C50.5171 309.036 40.9031 299.559 40.9031 281.266V118.734C40.9031 100.359 50.5171 90.883 68.6273 90.883H331.373C348.949 90.883 359.016 100.359 359.016 118.734V281.266C359.016 299.559 348.949 309.036 331.373 309.036H68.6273Z" fill="white"/>
</svg>
