<svg width="400" height="400" viewBox="0 0 400 400" fill="none" xmlns="http://www.w3.org/2000/svg">
<path d="M200 340C257.039 340 295 303.104 295 247.798C295 222.733 284.949 194.813 273.851 170.601C258.789 137.614 236.573 101.702 215.797 69.7955C211.663 63.4908 206.959 60 200 60C192.964 60 188.337 63.4908 184.279 69.7955C163.393 101.702 141.211 137.614 126.149 170.601C115.051 194.813 105 222.733 105 247.798C105 303.104 143.037 340 200 340ZM200 324.733C152.213 324.733 120.327 293.93 120.327 247.798C120.327 225.973 129.3 201.607 139.956 178.117C155.373 143.729 176.122 111.28 196.654 80.3352C198.565 77.3516 201.656 77.3516 203.499 80.3352C223.878 111.28 244.669 143.729 259.968 178.041C270.7 201.607 279.674 225.973 279.674 247.798C279.674 293.93 247.864 324.733 200 324.733Z" fill="white"/>
</svg>
