<svg width="400" height="400" viewBox="0 0 400 400" fill="none" xmlns="http://www.w3.org/2000/svg">
<path d="M58.3484 145.064C63.7162 145.064 66.6501 141.922 66.6501 136.555V95.808C66.6501 76.546 76.7156 66.6121 95.6766 66.6121H136.894C142.261 66.6121 145.403 63.6313 145.403 58.3484C145.403 52.9807 142.261 50 136.894 50H95.223C65.378 50 50 65.2083 50 94.8838V136.555C50 141.922 52.9807 145.064 58.3484 145.064ZM341.652 145.064C347.105 145.064 350.001 141.922 350.001 136.555V94.8838C350.001 65.5304 334.707 50 304.778 50H263.107C257.739 50 254.598 52.9807 254.598 58.3484C254.598 63.6313 257.739 66.6121 263.107 66.6121H304.325C322.726 66.6121 333.35 76.546 333.35 95.808V136.555C333.35 141.922 336.37 145.064 341.652 145.064ZM95.223 350H136.894C142.261 350 145.403 346.982 145.403 341.614C145.403 336.331 142.261 333.351 136.894 333.351H95.6766C76.7156 333.351 66.6501 323.416 66.6501 304.155V263.409C66.6501 258.04 63.6695 254.899 58.3484 254.899C52.934 254.899 50 258.04 50 263.409V305.079C50 334.754 65.378 350 95.223 350ZM263.107 350H304.778C334.707 350 350.001 334.471 350.001 305.079V263.409C350.001 258.04 347.019 254.899 341.652 254.899C336.284 254.899 333.35 258.04 333.35 263.409V304.155C333.35 323.416 322.726 333.351 304.325 333.351H263.107C257.739 333.351 254.598 336.331 254.598 341.614C254.598 346.982 257.739 350 263.107 350Z" fill="white"/>
<path d="M145.158 178.847C149.733 178.847 153.205 175.414 153.205 170.715V146.324C153.205 141.711 149.733 138.277 145.158 138.277C140.545 138.277 137.072 141.711 137.072 146.324V170.715C137.072 175.414 140.545 178.847 145.158 178.847ZM190.371 215.625C190.74 215.625 191.27 215.625 191.807 215.625C205.821 215.625 213.095 208.352 213.095 194.291V145.175C213.095 141.033 210.094 138.031 205.952 138.031C201.81 138.031 198.846 141.033 198.846 145.175V195.727C198.846 199.092 196.257 201.129 193.406 201.129H188.074C183.986 201.129 181.014 204.056 181.014 208.066C181.014 212.946 184.233 215.625 190.371 215.625ZM260.345 178.847C264.873 178.847 268.308 175.414 268.308 170.715V146.324C268.308 141.711 264.873 138.277 260.345 138.277C255.685 138.277 252.214 141.711 252.214 146.324V170.715C252.214 175.414 255.685 178.847 260.345 178.847ZM202.056 265.828C220.045 265.828 238.25 258.182 251.389 245.003C252.644 243.786 253.629 241.946 253.629 239.415C253.629 235.282 250.494 232.518 246.646 232.518C244.437 232.518 242.736 233.225 240.291 235.756C231.097 245.08 216.657 251.624 202.056 251.624C187.757 251.624 173.316 245.212 163.822 235.756C161.678 233.611 160.016 232.518 157.383 232.518C153.486 232.518 150.315 235.282 150.315 239.415C150.315 241.73 151.421 243.486 152.723 244.957C165.392 258.482 183.936 265.828 202.056 265.828Z" fill="white"/>
</svg>
