<svg width="400" height="400" viewBox="0 0 400 400" fill="none" xmlns="http://www.w3.org/2000/svg">
<path d="M311.004 340H354.495C374.049 340 384.143 330.351 384.143 310.955V89.0448C384.143 69.6483 374.049 60 354.495 60H311.004C291.45 60 281.436 69.6483 281.436 89.0448V310.955C281.436 330.351 291.45 340 311.004 340ZM312.99 324.972C301.771 324.972 297.069 320.127 297.069 308.843V91.1562C297.069 79.8723 301.771 75.0274 312.99 75.0274H352.625C363.845 75.0274 368.546 79.8723 368.546 91.1562V308.843C368.546 320.127 363.845 324.972 352.625 324.972H312.99Z" fill="white"/>
<path d="M178.169 339.994H221.661C241.295 339.994 251.308 330.345 251.308 310.949V132.562C251.308 113.129 241.295 103.437 221.661 103.437H178.169C158.615 103.437 148.682 113.129 148.682 132.562V310.949C148.682 330.345 158.615 339.994 178.169 339.994ZM180.235 324.966C168.98 324.966 164.279 320.121 164.279 308.837V134.673C164.279 123.353 168.98 118.464 180.235 118.464H219.755C230.975 118.464 235.675 123.353 235.675 134.673V308.837C235.675 320.121 230.975 324.966 219.755 324.966H180.235Z" fill="white"/>
<path d="M45.4246 339.999H88.9173C108.471 339.999 118.529 330.35 118.529 310.954V175.408C118.529 155.975 108.471 146.363 88.9173 146.363H45.4246C25.7907 146.363 15.8574 155.975 15.8574 175.408V310.954C15.8574 330.35 25.7907 339.999 45.4246 339.999ZM47.3754 324.971C36.1556 324.971 31.4548 320.126 31.4548 308.842V177.519C31.4548 166.236 36.1556 161.391 47.3754 161.391H87.0107C98.2306 161.391 102.931 166.236 102.931 177.519V308.842C102.931 320.126 98.2306 324.971 87.0107 324.971H47.3754Z" fill="white"/>
</svg>
