<svg width="400" height="400" viewBox="0 0 400 400" fill="none" xmlns="http://www.w3.org/2000/svg">
<path d="M217.415 54.6127C213.966 58.2095 210.984 62.2459 208.538 66.6217C205.973 65.6358 203.115 65.1197 200 65.1197C185.292 65.1197 176.348 76.5739 174.926 91.7636C174.482 96.074 171.82 97.9971 167.172 99.2127C141.156 106.313 125.225 128.041 121.564 178.375C118.089 210.615 116.997 240.745 102.089 256.627C93.2214 266.158 82.6936 277.559 81.3697 284.367V285.988H318.594V284.367C317.307 277.559 306.779 266.158 297.875 256.627C283.002 240.745 281.912 210.615 278.4 178.375C277.932 171.868 277.257 165.84 276.373 160.28C281.641 159.221 286.683 157.492 291.371 155.127C292.566 161.882 293.376 169.066 293.885 176.603C297.022 203.117 297.537 232.633 310.757 247.16C322.959 260.26 337.172 273.189 337.172 288.159C337.172 295.786 331.484 300.873 322.359 300.873H248.266C247.479 328.353 227.771 350 200 350C172.229 350 152.485 328.272 151.698 300.873H77.5615C68.5155 300.873 62.8281 295.786 62.8281 288.159C62.8281 273.189 76.9612 260.26 89.207 247.16C102.463 232.633 102.977 203.117 106.115 176.603C109.252 129.553 124.239 96.2111 161.108 84.9413C164.923 64.774 179.986 50.5176 200 50.5176C206.386 50.5176 212.259 51.9687 217.415 54.6127ZM166.944 300.873C168.096 322.319 181.509 336.141 200 336.141C218.491 336.141 231.904 322.319 233.02 300.873H166.944Z" fill="white"/>
<path d="M263.892 145.833C290.057 145.833 311.791 124.179 311.791 97.9347C311.791 71.6905 290.057 50 263.892 50C237.569 50 215.957 71.6905 215.957 97.9347C215.957 124.179 237.569 145.833 263.892 145.833Z" fill="white"/>
</svg>
