<svg width="400" height="400" viewBox="0 0 400 400" fill="none" xmlns="http://www.w3.org/2000/svg">
<path d="M199.942 345.324C239.096 345.324 273.779 286.557 273.779 200.409C273.779 114.056 239.176 55.2085 199.942 55.2085C160.824 55.2085 126.141 114.056 126.141 200.409C126.141 286.557 160.905 345.324 199.942 345.324ZM199.942 67.3619C231.71 67.3619 259.763 127 259.763 200.409C259.763 271.224 231.71 333.133 199.942 333.133C168.254 333.133 140.12 271.224 140.12 200.409C140.12 127 168.254 67.3619 199.942 67.3619ZM193.186 57.465V342.285H206.814V57.465H193.186ZM199.942 262.108C154.595 262.108 115.176 273.673 93.9159 291.356L104.287 299.898C124.983 284.536 157.877 275.736 199.942 275.736C242.124 275.736 274.981 284.536 295.713 299.898L306.048 291.356C284.824 273.673 245.405 262.108 199.942 262.108ZM340.657 193.186H59.3441V206.814H340.657V193.186ZM199.942 138.711C245.405 138.711 284.824 127.145 306.048 109.462L295.713 100.92C274.981 116.282 242.124 125.083 199.942 125.083C157.877 125.083 124.983 116.282 104.287 100.92L93.9159 109.462C115.176 127.145 154.595 138.711 199.942 138.711ZM199.942 350C282.769 350 350 282.885 350 200.058C350 117.232 282.769 50 199.942 50C117.115 50 50 117.232 50 200.058C50 282.885 117.115 350 199.942 350ZM199.942 336.005C124.866 336.005 63.9951 275.134 63.9951 200.058C63.9951 124.866 124.866 64.0314 199.942 64.0314C275.134 64.0314 335.969 124.866 335.969 200.058C335.969 275.134 275.134 336.005 199.942 336.005Z" fill="white"/>
</svg>
