<svg width="400" height="400" viewBox="0 0 400 400" fill="none" xmlns="http://www.w3.org/2000/svg">
<path d="M310.242 330C355.166 330 390 298.337 390 257.855C390 226.466 372.72 198.712 341.567 187.572C343.132 119.835 295.133 70 233.756 70C190.969 70 161.887 93.5143 145.001 121.959C108.12 108.285 66.56 137.388 66.5259 180.234C32.4549 183.854 10 213.089 10 250.145C10 294.438 47.9629 329.765 98.622 329.765L310.242 330ZM310.12 313.53L98.4628 313.296C57.2773 313.296 26.4543 285.078 26.4543 250.145C26.4543 218.309 45.6381 193.507 78.8455 193.507C80.6384 193.507 81.4133 192.451 81.4133 190.618C81.4133 145.461 116.539 126.334 149.696 138.969C151.366 139.576 152.422 139.174 153.356 137.585C168.85 110.201 192.565 86.4689 233.756 86.4689C284.978 86.4689 322.164 126.934 325.569 176.841C326.016 182.887 325.494 190.036 325.195 196.598C325.112 198.27 325.804 199.411 327.391 199.775C355.739 206.952 373.584 229.255 373.584 257.855C373.584 289.408 345.927 313.53 310.12 313.53Z" fill="black"/>
</svg>
