<svg width="400" height="400" viewBox="0 0 400 400" fill="none" xmlns="http://www.w3.org/2000/svg">
<path d="M41.7074 193.734H172.626C188.61 193.734 196.833 186.148 196.833 169.609V106.052C196.833 89.5139 188.61 82 172.626 82H41.7074C25.7953 82 17.5 89.5139 17.5 106.052V169.609C17.5 186.148 25.7953 193.734 41.7074 193.734ZM42.6792 180.191C34.7535 180.191 31.0268 176.532 31.0268 168.379V107.315C31.0268 99.09 34.7535 95.5432 42.6792 95.5432H171.654C179.612 95.5432 183.307 99.09 183.307 107.315V168.379C183.307 176.532 179.612 180.191 171.654 180.191H42.6792ZM76.2299 318H189.647C205.559 318 213.854 310.446 213.854 293.908V247.946C213.854 231.513 205.559 223.926 189.647 223.926H76.2299C60.2455 223.926 51.9503 231.513 51.9503 247.946V293.908C51.9503 310.446 60.2455 318 76.2299 318ZM77.1618 304.457C69.2038 304.457 65.4771 300.798 65.4771 292.718V249.209C65.4771 240.984 69.2038 237.469 77.1618 237.469H188.602C196.6 237.469 200.328 240.984 200.328 249.209V292.718C200.328 300.798 196.6 304.457 188.602 304.457H77.1618ZM263.533 303.448H358.293C374.237 303.448 382.5 295.894 382.5 279.284V122.885C382.5 106.419 374.237 98.833 358.293 98.833H263.533C247.548 98.833 239.325 106.419 239.325 122.885V279.284C239.325 295.894 247.548 303.448 263.533 303.448ZM264.464 289.865C256.579 289.865 252.852 286.279 252.852 278.094V124.22C252.852 115.995 256.579 112.376 264.464 112.376H357.25C365.28 112.376 368.974 115.995 368.974 124.22V278.094C368.974 286.279 365.28 289.865 357.25 289.865H264.464Z" fill="black"/>
</svg>
