<svg width="400" height="400" viewBox="0 0 400 400" fill="none" xmlns="http://www.w3.org/2000/svg">
<path d="M124.459 144.611C96.0608 155.093 70.5969 172.037 49.1452 194.677C46.3457 197.641 42.5311 197.641 39.7316 194.927L19.3269 174.264C16.9875 171.714 16.8242 168.501 18.9054 165.874C36.5535 144.088 61.8508 125.232 91.3397 111.482L124.459 144.611ZM380.974 165.874C383.094 168.501 383.179 171.714 380.591 174.264L360.186 194.668C357.386 197.468 353.658 197.554 350.944 194.764C312.223 152.941 259.011 130.899 199.959 130.899C192.797 130.899 185.726 131.23 178.77 131.913L140.986 94.1174C160.082 89.4439 179.98 86.9375 199.959 86.9375C272.381 86.9375 343.508 120.035 380.974 165.874Z" fill="black"/>
<path d="M204.867 225.047C203.23 224.947 201.592 224.913 199.953 224.919C168.137 224.794 135.952 239.9 116.151 261.551C113.141 264.725 109.576 264.983 106.604 262.175L83.3787 239.027C80.9059 236.64 80.8286 233.591 82.9185 231.041C100.816 209.161 130.473 191.916 164.457 184.625L204.867 225.047ZM316.95 231.041C319.078 233.591 318.915 236.811 316.49 239.027L301.126 254.308L230.519 183.68C266.608 190.243 298.35 208.049 316.95 231.041Z" fill="black"/>
<path d="M250.325 298.386C252.33 301.215 251.869 303.916 249.693 305.928L211.289 342.866C205.45 348.542 202.813 350 199.958 350C197.063 350 194.427 348.457 188.626 342.866L150.192 305.928C148.016 303.916 147.547 301.52 149.207 298.863C158.767 286.13 178.517 274.863 199.958 274.863C221.054 274.863 240.766 285.911 250.325 298.386Z" fill="black"/>
<path d="M339.809 338.13C342.996 341.404 348.309 341.404 351.496 338.13C354.76 334.779 354.683 329.716 351.496 326.529L77.39 52.4236C74.2799 49.3135 68.9678 49.073 65.617 52.4236C62.5157 55.5249 62.5157 61.0092 65.617 64.1106L339.809 338.13Z" fill="black"/>
</svg>
