<svg width="800" height="800" viewBox="0 0 800 800" fill="none" xmlns="http://www.w3.org/2000/svg">
<g clip-path="url(#clip0_74_59)">
<path d="M586.047 400C586.047 502.75 502.75 586.047 400 586.047C297.249 586.047 213.953 502.75 213.953 400C213.953 297.249 297.249 213.953 400 213.953C502.75 213.953 586.047 297.249 586.047 400Z" fill="black"/>
<path fill-rule="evenodd" clip-rule="evenodd" d="M400 0C415.412 0 427.907 12.4945 427.907 27.907V102.326C427.907 117.738 415.412 130.233 400 130.233C384.588 130.233 372.093 117.738 372.093 102.326V27.907C372.093 12.4945 384.588 0 400 0ZM0 400C0 384.588 12.4945 372.093 27.907 372.093H102.326C117.738 372.093 130.233 384.588 130.233 400C130.233 415.412 117.738 427.907 102.326 427.907H27.907C12.4945 427.907 0 415.412 0 400ZM669.767 400C669.767 384.588 682.262 372.093 697.674 372.093H772.093C787.505 372.093 800 384.588 800 400C800 415.412 787.505 427.907 772.093 427.907H697.674C682.262 427.907 669.767 415.412 669.767 400ZM400 669.767C415.412 669.767 427.907 682.262 427.907 697.674V772.093C427.907 787.505 415.412 800 400 800C384.588 800 372.093 787.505 372.093 772.093V697.674C372.093 682.262 384.588 669.767 400 669.767Z" fill="black"/>
<g opacity="0.5">
<path d="M90.0162 91.7433C100.416 80.3684 118.068 79.5784 129.443 89.9784L212.123 165.572C223.498 175.972 224.288 193.624 213.888 204.999C203.488 216.374 185.836 217.164 174.461 206.764L91.7814 131.17C80.4065 120.77 79.6162 103.118 90.0162 91.7433Z" fill="black"/>
<path d="M710.024 91.7433C720.424 103.118 719.635 120.77 708.26 131.17L625.578 206.764C614.203 217.164 596.551 216.374 586.151 204.999C575.751 193.624 576.543 175.972 587.918 165.572L670.597 89.9784C681.972 79.5784 699.624 80.3684 710.024 91.7433Z" fill="black"/>
<path d="M587.018 586.966C597.916 576.067 615.583 576.071 626.482 586.969L709.161 669.66C720.06 680.558 720.06 698.225 709.161 709.124C698.262 720.022 680.592 720.022 669.693 709.12L587.014 626.433C576.115 615.531 576.119 597.864 587.018 586.966Z" fill="black"/>
<path d="M213.031 586.973C223.929 597.868 223.929 615.539 213.031 626.437L130.344 709.124C119.445 720.022 101.776 720.022 90.8774 709.124C79.9788 698.225 79.9788 680.558 90.8774 669.66L173.565 586.969C184.463 576.074 202.133 576.074 213.031 586.973Z" fill="black"/>
</g>
</g>
<defs>
<clipPath id="clip0_74_59">
<rect width="800" height="800" fill="white"/>
</clipPath>
</defs>
</svg>
