<svg width="800" height="800" viewBox="0 0 800 800" fill="none" xmlns="http://www.w3.org/2000/svg">
<path d="M251.949 0C177.213 32.2612 113.542 85.6735 68.7768 153.661C24.0112 221.648 0.104413 301.242 0 382.644C0 493.334 43.9713 599.49 122.241 677.759C200.51 756.029 306.666 800 417.356 800C497.248 799.921 575.438 776.913 642.64 733.709C709.842 690.505 763.232 628.921 796.468 556.271C744.255 579.01 687.942 590.823 630.993 590.982C520.303 590.982 414.147 547.011 335.877 468.742C257.608 390.472 213.637 284.316 213.637 173.627C213.788 113.671 226.855 54.4518 251.949 0Z" fill="white"/>
</svg>
